<svg width="38" height="44" viewBox="0 0 38 44" fill="none" xmlns="http://www.w3.org/2000/svg">
<path d="M12.5536 24.4286H9.16071C8.60089 24.4286 8.14286 23.9705 8.14286 23.4107V20.0179C8.14286 19.458 8.60089 19 9.16071 19H12.5536C13.1134 19 13.5714 19.458 13.5714 20.0179V23.4107C13.5714 23.9705 13.1134 24.4286 12.5536 24.4286ZM21.7143 23.4107V20.0179C21.7143 19.458 21.2562 19 20.6964 19H17.3036C16.7437 19 16.2857 19.458 16.2857 20.0179V23.4107C16.2857 23.9705 16.7437 24.4286 17.3036 24.4286H20.6964C21.2562 24.4286 21.7143 23.9705 21.7143 23.4107ZM29.8571 23.4107V20.0179C29.8571 19.458 29.3991 19 28.8393 19H25.4464C24.8866 19 24.4286 19.458 24.4286 20.0179V23.4107C24.4286 23.9705 24.8866 24.4286 25.4464 24.4286H28.8393C29.3991 24.4286 29.8571 23.9705 29.8571 23.4107ZM21.7143 31.5536V28.1607C21.7143 27.6009 21.2562 27.1429 20.6964 27.1429H17.3036C16.7437 27.1429 16.2857 27.6009 16.2857 28.1607V31.5536C16.2857 32.1134 16.7437 32.5714 17.3036 32.5714H20.6964C21.2562 32.5714 21.7143 32.1134 21.7143 31.5536ZM13.5714 31.5536V28.1607C13.5714 27.6009 13.1134 27.1429 12.5536 27.1429H9.16071C8.60089 27.1429 8.14286 27.6009 8.14286 28.1607V31.5536C8.14286 32.1134 8.60089 32.5714 9.16071 32.5714H12.5536C13.1134 32.5714 13.5714 32.1134 13.5714 31.5536ZM29.8571 31.5536V28.1607C29.8571 27.6009 29.3991 27.1429 28.8393 27.1429H25.4464C24.8866 27.1429 24.4286 27.6009 24.4286 28.1607V31.5536C24.4286 32.1134 24.8866 32.5714 25.4464 32.5714H28.8393C29.3991 32.5714 29.8571 32.1134 29.8571 31.5536ZM38 9.5V39.3571C38 41.6049 36.1763 43.4286 33.9286 43.4286H4.07143C1.82366 43.4286 0 41.6049 0 39.3571V9.5C0 7.25223 1.82366 5.42857 4.07143 5.42857H8.14286V1.01786C8.14286 0.458036 8.60089 0 9.16071 0H12.5536C13.1134 0 13.5714 0.458036 13.5714 1.01786V5.42857H24.4286V1.01786C24.4286 0.458036 24.8866 0 25.4464 0H28.8393C29.3991 0 29.8571 0.458036 29.8571 1.01786V5.42857H33.9286C36.1763 5.42857 38 7.25223 38 9.5ZM33.9286 38.8482V13.5714H4.07143V38.8482C4.07143 39.1281 4.30045 39.3571 4.58036 39.3571H33.4196C33.6996 39.3571 33.9286 39.1281 33.9286 38.8482Z" fill="black"/>
</svg>
